<svg id="eLWSYk0Ca9B1" xmlns="http://www.w3.org/2000/svg" xmlns:xlink="http://www.w3.org/1999/xlink" viewBox="130 375 800 320" shape-rendering="geometricPrecision" text-rendering="geometricPrecision"><style><![CDATA[#eLWSYk0Ca9B28_to {animation: eLWSYk0Ca9B28_to__to 3000ms linear infinite normal forwards}@keyframes eLWSYk0Ca9B28_to__to { 0% {transform: translate(281.1px,540.2px)} 66.666667% {transform: translate(281.1px,540.2px)} 73.333333% {transform: translate(272px,550px)} 80% {transform: translate(281.1px,540.2px)} 86.666667% {transform: translate(295px,542px)} 93.333333% {transform: translate(295px,542px)} 100% {transform: translate(281.1px,540.2px)}}]]></style><rect width="1088" height="1088" rx="0" ry="0" fill="rgba(21,13,63,0)"/><circle r="65" transform="translate(281.7 540.2)" fill="rgba(21,13,63,0)"/><g><path d="M467,462.2L501,492c3.2,2.8,5.5,4.2,6.9,4.2c2.4,0,3.6-2.5,3.6-7.6c0-5.7-.3-9.7-1-11.8s-2.1-3.7-4.3-4.7c-1.8-.9-3-1.8-3.8-2.8-.7-1-1.1-2.2-1.1-3.8c0-3.8,2.6-6.3,7.9-7.4c2.1-.5,5.9-.7,11.2-.7c6.9,0,11.6.4,14.3,1.2c4.2,1.3,6.3,3.7,6.3,7.2c0,3-1.7,5.2-5.1,6.7-1.4.6-2.3,1.1-2.8,1.6s-.9,1.1-1.3,2.1c-1.2,3-1.9,8.7-1.9,17.1v22.3c0,3.4,0,8.1.1,14c0,8-.4,13.8-1.4,17.4-1.2,4.4-3.5,6.6-6.7,6.6-1.4,0-2.6-.3-3.7-.9s-2.7-2-5.1-4.1l-40.5-36.3c-2.8-2.6-5.2-3.8-7-3.8-2.8,0-4.2,3.9-4.2,11.6c0,6.3.4,10.7,1.1,13s2.2,4,4.3,5.1c3.1,1.5,4.6,3.5,4.6,5.9c0,6.3-6.8,9.5-20.4,9.5-6.2,0-10.9-.8-14.3-2.4s-5.1-3.9-5.1-6.9c0-1.5.3-2.7,1-3.5.6-.8,2.1-1.8,4.3-3.1c2.1-1.3,3.4-3.5,3.9-6.8.8-5.9,1.2-14.3,1.2-25.4c0-11.8-.7-20.3-2.1-25.7-.5-2-1.1-3.4-1.9-4.4s-2.1-1.9-3.8-2.7c-2.1-1-3.5-2-4.3-2.9-.8-1-1.2-2.1-1.2-3.5c0-4.4,3.8-7.1,11.3-8.3c2.6-.4,7-.5,13.4-.5c3.6,0,6.3.3,8,.9c1.4.5,3.3,1.8,5.6,3.8Z" fill="#fff"/><path d="M659.8,493.1v16.7c0,10.1-.8,17.2-2.3,21.4-3.2,8.8-10.3,15.2-21.3,19.2-6.7,2.5-14.2,3.7-22.6,3.7-14.6,0-26.3-3.5-35.1-10.5-4.3-3.4-7.2-7.4-8.9-11.9s-2.5-11-2.5-19.6c0-3.3.1-8.8.3-16.4.1-5.4.2-8.9.2-10.7c0-3.8-.3-6.4-.9-7.9s-1.8-2.8-3.7-4.1c-3-2-4.5-4.1-4.5-6.6c0-1.8.8-3.3,2.3-4.7s3.5-2.3,6-2.8c5-1,10.9-1.5,17.8-1.5c7.5,0,13.8.6,18.7,1.7s7.3,3.6,7.3,7.5c0,1.9-.7,3.4-2.1,4.6-.3.3-1.7,1-4.1,2.1-1.5.6-2.5,1.8-3,3.5s-.8,4.5-.8,8.3c0,4-.2,12.5-.5,25.7-.2,7.8,1.9,13.8,6.4,17.9c3.6,3.4,8.3,5.1,14.1,5.1c3.6,0,6.9-.7,9.9-2s5.2-3.2,6.8-5.5c1.2-1.8,2.1-3.8,2.5-5.9.5-2.2.7-5.2.7-9v-15c-.2-11.5-.6-18.3-1-20.3s-1.9-3.5-4.4-4.7c-2.4-1-4-2-4.9-2.9s-1.3-1.9-1.3-3.2c0-2.7,1.6-4.7,4.9-6s8.5-1.9,15.7-1.9c7.1,0,12.2.6,15.3,1.8c3.2,1.2,4.8,3.2,4.8,5.9c0,1.3-.3,2.3-.8,2.9s-2,1.6-4.3,2.9c-2.4,1.4-3.8,2.8-4.1,4.4s-.5,7.7-.6,17.8Z" fill="#fff"/><path d="M717.7,457.5c5.2,0,10.1.5,14.7,1.4c6.2,1.2,9.3,3.9,9.3,7.9c0,1.3-.3,2.3-.9,3s-2.2,1.6-4.7,2.9c-2.1,1-3.5,3.3-4.1,6.9-.7,3.6-1,10.5-1,20.8c0,17.4.4,28.2,1.3,32.3.3,1.3.8,2.3,1.5,3s1.8,1.5,3.5,2.3c3,1.4,4.5,3.3,4.5,5.9c0,3.6-2.8,6.2-8.3,7.5-6,1.5-13.4,2.2-22.1,2.2-14.9,0-22.3-2.8-22.3-8.5c0-2.1,1.5-4,4.4-5.7c2.2-1.4,3.6-3.2,4-5.6.9-5.2,1.3-16.2,1.3-33.1c0-11.7-.6-19.1-1.8-22.4-.6-1.9-2.2-3.6-4.6-5.1-1.9-1.2-3.1-2.3-3.8-3.1-.6-.8-1-1.9-1-3.1c0-2,.9-3.5,2.8-4.7s5.2-2.2,10-3.1c5.7-1.2,11.4-1.7,17.3-1.7Z" fill="#fff"/><path d="M789.5,458.9h36c3.9-.1,7.4-.7,10.6-1.6c1.4-.4,2.6-.5,3.6-.5c3.7,0,7.3,2.7,10.8,8.2s5.2,11.1,5.2,16.9c0,4-1.2,6.9-3.6,8.7-1.8,1.4-4,2.1-6.6,2.1-2.4,0-4.5-.7-6.3-2s-3.5-3.6-5.3-6.7c-1.5-2.8-2.7-4.7-3.6-5.5-.9-.9-1.9-1.3-3.1-1.3-1.7,0-2.9.7-3.6,2.1s-1.1,3.7-1.1,7v38.3c0,3.9.4,6.8,1.2,8.5s2.4,3.1,4.6,4.1c2.5,1,4.1,2,5,3c.9.9,1.3,2.2,1.3,3.9c0,3.3-2.2,5.7-6.7,7.3s-11.3,2.4-20.5,2.4c-11.3,0-19.7-.9-25.2-2.8-4.6-1.5-6.9-4.1-6.9-7.5c0-1.9.8-3.3,2.5-4.4.4-.2,2-.8,4.9-1.6c1.7-.5,2.9-1.5,3.6-2.9s1.2-4.1,1.6-8.1c.4-3.6.7-9.3,1-17.3s.5-14.8.5-20.7c0-4.1-.3-7-1-8.8-.6-1.7-1.7-2.6-3.1-2.6-1.8,0-3.5,1.3-5.2,3.8-3.1,4.6-5.6,7.7-7.5,9.2-2.3,1.8-4.6,2.7-6.8,2.7-2.5,0-4.5-.9-6.1-2.8-1.6-1.8-2.4-4.2-2.4-7.1c0-2.8.6-5.9,1.9-9.3s3-6.5,5.1-9.4c3.5-4.6,6.9-7,10.3-7c.9,0,2,.1,3.1.4c2.5.5,4.5.8,6,1c1.9.2,3.7.3,5.8.3Z" fill="#fff"/></g><g><path d="M413.5,585.4c2,0,4.6.5,7.9,1.5.4.1.7.2.9.2s.8-.2,1.8-.5c.3-.1.6-.2,1-.2c1.3,0,2.7,1,4.1,3.1c1.5,2.1,2.2,4,2.2,5.9c0,1.1-.3,2-1,2.8s-1.5,1.1-2.4,1.1c-.8,0-1.4-.2-1.9-.5s-1.6-1.2-3.2-2.8c-2.3-2.2-4.6-3.3-6.9-3.3-1.1,0-2,.3-2.6.8-.7.5-1,1.2-1,2.1c0,1.7,1.5,3,4.5,3.8c4,1.2,6.6,2.1,7.8,2.6c5,2.4,7.5,6,7.5,10.7c0,4.2-1.7,7.6-5.1,10.2-3.5,2.7-8,4-13.6,4-2.5,0-5.1-.3-7.9-.9s-4.8-1.3-6-2.1c-.9-.6-1.8-2-2.5-4.1-.8-2.1-1.1-4.1-1.1-6.1c0-1,.2-1.7.6-2.2.5-.6,1.1-.9,1.8-.9s1.5.4,2.1,1.1c.4.4,1.4,1.8,2.9,4.1.7,1.1,1.9,2,3.4,2.7c1.6.7,3.2,1.1,4.9,1.1c1.4,0,2.6-.3,3.5-.8s1.3-1.2,1.3-2.1c0-.8-.4-1.5-1.1-2s-1.8-1.1-3.4-1.6c-2.8-.9-4.9-1.7-6.4-2.4s-2.8-1.7-4.1-2.8c-3.1-2.7-4.6-5.8-4.6-9.3c0-1.7.4-3.4,1.2-5s1.9-3,3.4-4.2c3.3-2.6,7.3-4,12-4Z" fill="#fff"/><path d="M472,585.4c5,0,9.4,1.4,13.2,4.3c2.5,2,4.6,4.5,6.2,7.7c1.5,3.1,2.3,6.3,2.3,9.4c0,4.6-1.5,8.7-4.6,12.4-2.6,3.1-5.9,5.3-10.1,6.7-2.6.8-5.1,1.2-7.7,1.2-3.4,0-6.6-.7-9.7-2.1-3.7-1.7-6.7-4.3-8.8-7.7-2.1-3.3-3.1-7-3.1-11c0-4.6,1.3-8.8,4-12.3c2.3-3.2,5.5-5.5,9.5-7c2.7-1.1,5.6-1.6,8.8-1.6Zm-2.7,8.4c-1.6,0-2.9.7-3.9,2.2-.7,1.1-1.1,2.4-1.1,3.9c0,2.2.4,4.8,1.3,7.7s2,5.5,3.4,7.7c.6,1,1.4,1.7,2.2,2.3.9.6,1.8.8,2.7.8c1.5,0,2.7-.6,3.6-1.7s1.4-2.6,1.4-4.4c0-2.4-.4-4.9-1.1-7.6s-1.7-5.1-3-7c-.7-1.2-1.6-2.1-2.6-2.8s-1.9-1.1-2.9-1.1Z" fill="#fff"/><path d="M530.1,599v13.4c0,3,.3,5,.8,5.9.6,1,2,1.6,4.1,1.6c2.2,0,4-.5,5.3-1.5s2.2-2.5,2.7-4.6c.3-1.3,1-1.9,2-1.9s1.9.5,2.5,1.4c.7.9,1,2.1,1,3.6c0,2.4-.9,5-2.7,7.8-.6.9-1.1,1.5-1.5,1.8s-.9.5-1.6.5l-6.5-.8h-20.5c-1.3,0-2.3-.2-2.8-.5-.8-.4-1.2-1.1-1.2-2c0-.5.1-1,.4-1.2s.9-.6,1.9-1.1c1.1-.5,1.8-1.3,2.1-2.2.3-.8.4-3.1.4-7c0-1.8,0-4.4-.1-7.8-.1-3.2-.2-5.7-.2-7.3s-.1-2.6-.4-3.2c-.2-.6-.8-1-1.5-1.2-1.3-.4-2.1-.8-2.5-1.1-.6-.5-.9-1-.9-1.7c0-1.4,1.2-2.5,3.5-3.3c2-.6,4.7-1,8.1-1c3.8,0,6.6.2,8.5.6c2.4.5,3.6,1.6,3.6,3.2c0,.6-.2,1.1-.5,1.4s-1.1.7-2.4,1.3c-.7.3-1.2.9-1.4,1.7-.1.8-.2,2.5-.2,5.2Z" fill="#fff"/><path d="M606.2,600.9v7.1c0,4.3-.3,7.4-1,9.2-1.4,3.8-4.4,6.5-9.1,8.2-2.9,1.1-6.1,1.6-9.7,1.6-6.3,0-11.3-1.5-15.1-4.5-1.8-1.5-3.1-3.2-3.8-5.1s-1.1-4.7-1.1-8.4c0-1.4,0-3.8.1-7c.1-2.3.1-3.8.1-4.6c0-1.6-.1-2.7-.4-3.4-.2-.6-.8-1.2-1.6-1.8-1.3-.8-1.9-1.8-1.9-2.8c0-.8.3-1.4,1-2s1.5-1,2.6-1.2c2.1-.4,4.7-.6,7.6-.6c3.2,0,5.9.2,8,.7s3.1,1.5,3.1,3.2c0,.8-.3,1.5-.9,2-.1.1-.7.4-1.8.9-.6.3-1.1.8-1.3,1.5s-.3,1.9-.3,3.6-.1,5.4-.2,11c-.1,3.4.8,5.9,2.7,7.7c1.6,1.4,3.6,2.2,6,2.2c1.6,0,3-.3,4.2-.9c1.3-.6,2.2-1.4,2.9-2.4.5-.8.9-1.6,1.1-2.5s.3-2.2.3-3.8v-6.4c-.1-4.9-.2-7.8-.4-8.7-.2-.8-.8-1.5-1.9-2-1-.4-1.7-.9-2.1-1.2-.4-.4-.6-.8-.6-1.4c0-1.2.7-2,2.1-2.6c1.4-.5,3.6-.8,6.7-.8c3,0,5.2.3,6.6.8s2,1.4,2,2.5c0,.6-.1,1-.4,1.3s-.8.7-1.8,1.3-1.6,1.2-1.8,1.9.1,3,.1,7.4Z" fill="#fff"/><path d="M639.9,586.2h15.4c1.7-.1,3.2-.3,4.5-.7.6-.2,1.1-.2,1.6-.2c1.6,0,3.1,1.2,4.6,3.5s2.2,4.8,2.2,7.2c0,1.7-.5,2.9-1.6,3.7-.8.6-1.7.9-2.8.9-1,0-1.9-.3-2.7-.9s-1.5-1.5-2.3-2.9c-.6-1.2-1.2-2-1.5-2.4-.4-.4-.8-.6-1.3-.6-.7,0-1.2.3-1.6.9-.3.6-.5,1.6-.5,3v16.4c0,1.7.2,2.9.5,3.7s1,1.3,2,1.8c1.1.4,1.8.9,2.2,1.3s.6,1,.6,1.7c0,1.4-1,2.5-2.9,3.1s-4.8,1-8.8,1c-4.8,0-8.4-.4-10.8-1.2-2-.7-3-1.7-3-3.2c0-.8.4-1.4,1.1-1.9.2-.1.9-.3,2.1-.7.7-.2,1.3-.6,1.5-1.2.3-.6.5-1.8.7-3.5.2-1.5.3-4,.4-7.4s.2-6.4.2-8.9c0-1.8-.1-3-.4-3.8-.3-.7-.7-1.1-1.3-1.1-.8,0-1.5.5-2.2,1.6-1.3,2-2.4,3.3-3.2,4-1,.8-2,1.1-2.9,1.1-1.1,0-1.9-.4-2.6-1.2s-1-1.8-1-3s.3-2.5.8-4s1.3-2.8,2.2-4c1.5-2,2.9-3,4.4-3c.4,0,.8.1,1.3.2c1.1.2,1.9.4,2.6.4s1.7.3,2.5.3Z" fill="#fff"/><path d="M697,585.6c2.2,0,4.3.2,6.3.6c2.7.5,4,1.7,4,3.4c0,.6-.1,1-.4,1.3s-.9.7-2,1.2c-.9.4-1.5,1.4-1.8,3-.3,1.5-.4,4.5-.4,8.9c0,7.5.2,12.1.6,13.9.1.6.3,1,.6,1.3s.8.6,1.5,1c1.3.6,1.9,1.4,1.9,2.5c0,1.6-1.2,2.6-3.6,3.2-2.6.6-5.7.9-9.5.9-6.4,0-9.6-1.2-9.6-3.6c0-.9.6-1.7,1.9-2.5c1-.6,1.5-1.4,1.7-2.4.4-2.2.6-7,.6-14.2c0-5-.3-8.2-.8-9.6-.3-.8-.9-1.5-2-2.2-.8-.5-1.3-1-1.6-1.3-.3-.4-.4-.8-.4-1.3c0-.8.4-1.5,1.2-2s2.2-.9,4.3-1.3c2.5-.6,5-.8,7.5-.8Z" fill="#fff"/><path d="M746.8,585.4c5,0,9.4,1.4,13.2,4.3c2.5,2,4.6,4.5,6.2,7.7c1.5,3.1,2.3,6.3,2.3,9.4c0,4.6-1.5,8.7-4.6,12.4-2.6,3.1-5.9,5.3-10.1,6.7-2.6.8-5.1,1.2-7.7,1.2-3.4,0-6.6-.7-9.7-2.1-3.7-1.7-6.7-4.3-8.8-7.7-2.1-3.3-3.1-7-3.1-11c0-4.6,1.3-8.8,4-12.3c2.3-3.2,5.5-5.5,9.5-7c2.6-1.1,5.6-1.6,8.8-1.6Zm-2.8,8.4c-1.6,0-2.9.7-3.9,2.2-.7,1.1-1.1,2.4-1.1,3.9c0,2.2.4,4.8,1.3,7.7s2,5.5,3.4,7.7c.6,1,1.4,1.7,2.2,2.3.9.6,1.8.8,2.7.8c1.5,0,2.7-.6,3.6-1.7s1.4-2.6,1.4-4.4c0-2.4-.4-4.9-1.1-7.6s-1.7-5.1-3-7c-.7-1.2-1.6-2.1-2.6-2.8-.9-.7-1.9-1.1-2.9-1.1Z" fill="#fff"/><path d="M802.1,587.6l14.6,12.8c1.4,1.2,2.4,1.8,3,1.8c1,0,1.5-1.1,1.5-3.3c0-2.5-.1-4.1-.4-5s-.9-1.6-1.8-2c-.8-.4-1.3-.8-1.6-1.2s-.5-1-.5-1.6c0-1.6,1.1-2.7,3.4-3.2.9-.2,2.5-.3,4.8-.3c2.9,0,5,.2,6.1.5c1.8.5,2.7,1.6,2.7,3.1c0,1.3-.7,2.2-2.2,2.9-.6.3-1,.5-1.2.7s-.4.5-.6.9c-.5,1.3-.8,3.7-.8,7.3v9.6c0,1.5,0,3.5,0,6c0,3.4-.2,5.9-.6,7.4-.5,1.9-1.5,2.8-2.9,2.8-.6,0-1.1-.1-1.6-.4s-1.2-.8-2.2-1.8L804.4,609c-1.2-1.1-2.2-1.6-3-1.6-1.2,0-1.8,1.7-1.8,5c0,2.7.2,4.6.5,5.6s.9,1.7,1.9,2.2c1.3.6,2,1.5,2,2.5c0,2.7-2.9,4.1-8.8,4.1-2.6,0-4.7-.3-6.1-1-1.5-.7-2.2-1.7-2.2-2.9c0-.7.1-1.2.4-1.5s.9-.8,1.8-1.3s1.5-1.5,1.7-2.9c.3-2.5.5-6.1.5-10.9c0-5-.3-8.7-.9-11-.2-.8-.5-1.5-.8-1.9s-.9-.8-1.6-1.2c-.9-.4-1.5-.8-1.8-1.3-.3-.4-.5-.9-.5-1.5c0-1.9,1.6-3.1,4.8-3.5c1.1-.2,3-.2,5.7-.2c1.6,0,2.7.1,3.4.4.7.1,1.5.7,2.5,1.5Z" fill="#fff"/><path d="M868.5,585.4c2,0,4.6.5,7.9,1.5.4.1.7.2.9.2s.8-.2,1.8-.5c.3-.1.6-.2,1-.2c1.3,0,2.7,1,4.1,3.1c1.5,2.1,2.2,4,2.2,5.9c0,1.1-.3,2-1,2.8s-1.5,1.1-2.4,1.1c-.8,0-1.4-.2-1.9-.5s-1.6-1.2-3.2-2.8c-2.3-2.2-4.6-3.3-6.9-3.3-1.1,0-2,.3-2.6.8-.7.5-1,1.2-1,2.1c0,1.7,1.5,3,4.5,3.8c4,1.2,6.6,2.1,7.8,2.6c5,2.4,7.5,6,7.5,10.7c0,4.2-1.7,7.6-5.1,10.2-3.5,2.7-8,4-13.6,4-2.5,0-5.1-.3-7.9-.9s-4.8-1.3-6-2.1c-.9-.6-1.8-2-2.5-4.1-.8-2.1-1.1-4.1-1.1-6.1c0-1,.2-1.7.6-2.2.5-.6,1.1-.9,1.8-.9s1.5.4,2.1,1.1c.4.4,1.4,1.8,2.9,4.1.7,1.1,1.9,2,3.4,2.7c1.6.7,3.2,1.1,4.9,1.1c1.4,0,2.6-.3,3.5-.8s1.3-1.2,1.3-2.1c0-.8-.4-1.5-1.1-2s-1.8-1.1-3.4-1.6c-2.8-.9-4.9-1.7-6.4-2.4s-2.8-1.7-4.1-2.8c-3.1-2.7-4.6-5.8-4.6-9.3c0-1.7.4-3.4,1.2-5s1.9-3,3.4-4.2c3.3-2.6,7.3-4,12-4Z" fill="#fff"/></g><path d="M386.09999,540.3c0,25.6-9.2,49.2-24.5,67.4-4.2,5-9,9.7-14.1,13.9-18.1,14.7-41.2,23.6-66.4,23.6-58,0-105-47-105-105s47-105,105-105s105,47,105,105.1Zm-52.9,38c7.8-10.7,12.4-23.9,12.4-38.1c0-35.6-28.9-64.5-64.5-64.5s-64.5,28.9-64.5,64.5c0,12.76848,3.71772,24.67507,10.12887,34.69548L219.8,603.1l28.80713-7.18091c9.54399,5.58134,20.64754,8.78091,32.49285,8.78091c14,0,26.9-4.4,37.5-12c1.3-1,2.6-2,3.9-3.1c2.6-2.1,4.9-4.4,7.1-6.9c1.2-1.4,2.4-2.9,3.6-4.4h.00001Z" fill="#ff6d3b"/><g transform="translate(.000001 0)"><path d="M330.2,582.7c-2.2,2.5-4.5,4.8-7.1,6.9l-.8-.8-8.8-8.8l7.1-6.9l9.6,9.6Z" fill="#3e4959"/><path d="M362.2,607.6c-4.3,5.1-9,9.7-14.1,13.9l-28.9-28.9c1.4-1,2.7-2,3.9-3.1c2.5-2.1,4.9-4.4,7.1-6.9c1.3-1.4,2.4-2.9,3.6-4.4l28.4,29.4Z" transform="matrix(1 0 0 1.01-.700012-5.848476)" fill="#242d3c"/><path d="M281.7,489.2c-28.2,0-51,22.8-51,51s22.8,51,51,51c12,0,23.1-4.2,31.8-11.2l7.1-6.9c7.5-8.9,12.1-20.4,12.1-32.9c0-28.2-22.9-51-51-51Z" fill="#ff6d3b"/><path d="M281.7,489.2c-28.2,0-51,22.8-51,51s22.8,51,51,51c12,0,23.1-4.2,31.8-11.2l7.1-6.9c7.5-8.9,12.1-20.4,12.1-32.9c0-28.2-22.9-51-51-51Z" fill="#383838"/><path d="M332.7,540.2c0,12.5-4.5,24-12.1,32.9l-7.1,6.9c-8.7,7-19.8,11.2-31.8,11.2-28.2,0-51-22.8-51-51s22.8-51,51-51c28.1,0,51,22.8,51,51Z" fill="#242d3c"/></g><circle r="41.1" transform="matrix(1 0 0 1.001216 281.7 540.2)" fill="#fff"/><g id="eLWSYk0Ca9B28_to" transform="translate(281.1,540.2)"><g transform="translate(-281.700012,-540.200012)"><circle r="28" transform="translate(281.7 540.2)" fill="#16c5cb"/><circle r="13.1" transform="translate(281.7 540.2)" fill="#262e3c"/><circle r="7.1" transform="translate(273.6 530)" fill="#fff"/></g></g><g transform="translate(180.771655 0)" opacity="0"><circle r="65" transform="translate(100.928344 540.2)" fill="#fff"/><polygon points="219.8,603.1 254.3,594.5 228.3,568.5" transform="translate(-180.771656 0)" fill="#fff"/></g></svg>